<svg width="24" height="24" viewBox="0 0 24 24" fill="none" xmlns="http://www.w3.org/2000/svg">
<g clip-path="url(#clip0_38_730)">
<path d="M13.3259 12.0008L23.7254 1.60119C24.0916 1.23505 24.0916 0.64143 23.7254 0.275337C23.3593 -0.0907557 22.7657 -0.0908026 22.3996 0.275337L12 10.6749L1.60046 0.275337C1.23432 -0.0908026 0.640698 -0.0908026 0.274605 0.275337C-0.0914881 0.641477 -0.091535 1.2351 0.274605 1.60119L10.6741 12.0007L0.274605 22.4003C-0.091535 22.7664 -0.091535 23.3601 0.274605 23.7262C0.457651 23.9092 0.697604 24.0007 0.937557 24.0007C1.17751 24.0007 1.41742 23.9092 1.60051 23.7262L12 13.3266L22.3995 23.7262C22.5826 23.9092 22.8225 24.0007 23.0625 24.0007C23.3024 24.0007 23.5423 23.9092 23.7254 23.7262C24.0916 23.36 24.0916 22.7664 23.7254 22.4003L13.3259 12.0008Z" fill="black"/>
</g>
<defs>
<clipPath id="clip0_38_730">
<rect width="24" height="24" fill="white"/>
</clipPath>
</defs>
</svg>
